<svg xmlns="http://www.w3.org/2000/svg" width="600" height="224" viewBox="0 0 600 224" role="img" aria-labelledby="title desc" aria-label="LeetCode statistics for barbaron86">
<title id="title">LeetCode statistics for barbaron86</title>
<desc id="desc">28 problems solved. Easy: 23. Medium: 5. Hard: 0. Bars show each difficulty as a share of all solved problems.</desc>
<defs>
  <linearGradient id="background" x1="0" y1="0" x2="1" y2="1"><stop stop-color="#08243E"/><stop offset=".55" stop-color="#0D1117"/><stop offset="1" stop-color="#11122B"/></linearGradient>
  <linearGradient id="border" x1="0" y1="0" x2="1" y2="1"><stop stop-color="#95E8FF"/><stop offset=".3" stop-color="#259BFF" stop-opacity=".5"/><stop offset=".68" stop-color="#1555C3" stop-opacity=".65"/><stop offset="1" stop-color="#C971EC"/></linearGradient>
  <radialGradient id="halo"><stop stop-color="#259BFF" stop-opacity=".4"/><stop offset="1" stop-color="#259BFF" stop-opacity="0"/></radialGradient>
  <radialGradient id="violet"><stop stop-color="#1555C3" stop-opacity=".24"/><stop offset="1" stop-color="#1555C3" stop-opacity="0"/></radialGradient>
  <linearGradient id="glass" x1="0" y1="0" x2="1" y2="1"><stop stop-color="#FFFFFF" stop-opacity=".09"/><stop offset=".5" stop-color="#FFFFFF" stop-opacity=".01"/><stop offset="1" stop-color="#C971EC" stop-opacity=".04"/></linearGradient>
  <linearGradient id="mountain" x1="0" y1="0" x2="0" y2="1"><stop stop-color="#259BFF" stop-opacity=".32"/><stop offset="1" stop-color="#259BFF" stop-opacity=".025"/></linearGradient>
  <linearGradient id="ridge" x1="0" y1="0" x2="1" y2="1"><stop stop-color="#259BFF" stop-opacity=".18"/><stop offset="1" stop-color="#C971EC" stop-opacity=".06"/></linearGradient>
  <clipPath id="card"><rect x="1" y="1" width="598" height="222" rx="23"/></clipPath>
</defs>
<g clip-path="url(#card)">
  <rect width="600" height="224" fill="url(#background)"/>
  <ellipse cx="30" cy="12" rx="205" ry="125" fill="url(#halo)"/>
  <ellipse cx="562" cy="5" rx="220" ry="150" fill="url(#violet)"/>
  <rect x="8" y="8" width="584" height="208" rx="20" fill="url(#glass)"/>
  <path d="M0 178L30 148Q36 142 42 150L68 187L87 179L139 215L205 193L277 224H0Z" fill="url(#mountain)"/>
  <path d="M0 214L72 182L118 215L170 224L245 191L322 224L394 207L496 224H0Z" fill="url(#ridge)"/>
  <path d="M0 178L30 148Q36 142 42 150L68 187M170 224L245 191L322 224" fill="none" stroke="#259BFF" stroke-opacity=".28"/>
  <path d="M22 14H577" stroke="#FFFFFF" stroke-opacity=".12"/>
</g>
<rect x="1" y="1" width="598" height="222" rx="23" fill="none" stroke="url(#border)" stroke-width="1.5"/>
<path d="M4 45V25Q4 4 25 4H65" fill="none" stroke="#8DEAFF" stroke-opacity=".55" stroke-width="2"/>
<g transform="translate(33 27)" fill="none" stroke-linecap="round" stroke-linejoin="round"><path d="M36 6L18 24M27 20L45 37M26 58L40 44" stroke="#FFB21D" stroke-width="7"/><path d="M36 2L5 33Q0 38 5 43L25 63" stroke="#F0F6FC" stroke-width="7"/><path d="M20 37H50" stroke="#93A2B8" stroke-width="7"/></g><text x="103" y="52" text-anchor="start" fill="#F0F6FC" font-family="Segoe UI,Arial,sans-serif" font-size="30" font-weight="700">LeetCode</text><text x="103" y="78" text-anchor="start" fill="#A5B4CF" font-family="Segoe UI,Arial,sans-serif" font-size="17" font-weight="400">Problems Solved</text><text x="139" y="169" text-anchor="middle" fill="#F0F6FC" font-family="Segoe UI,Arial,sans-serif" font-size="76" font-weight="750">28</text><text x="139" y="196" text-anchor="middle" fill="#A5B4CF" font-family="Segoe UI,Arial,sans-serif" font-size="19" font-weight="400">solved</text><path d="M282 83V195" stroke="#8EA9EA" stroke-opacity=".42"/><defs><linearGradient id="easy-bar"><stop stop-color="#00CA85"/><stop offset="1" stop-color="#36E3A2"/></linearGradient></defs><circle cx="307" cy="104" r="8" fill="#00CA85"/><text x="325" y="110" text-anchor="start" fill="#F0F6FC" font-family="Segoe UI,Arial,sans-serif" font-size="16" font-weight="400">Easy</text><rect x="394" y="92" width="120" height="17" rx="8.5" fill="#25324D" fill-opacity=".8"/><rect id="easy-fill" x="394" y="92" width="98.571" height="17" rx="8.5" fill="url(#easy-bar)"/><text x="574" y="111" text-anchor="end" fill="#00D68F" font-family="Segoe UI,Arial,sans-serif" font-size="21" font-weight="700">23</text><defs><linearGradient id="medium-bar"><stop stop-color="#FFAC0A"/><stop offset="1" stop-color="#FFD45C"/></linearGradient></defs><circle cx="307" cy="144" r="8" fill="#FFAC0A"/><text x="325" y="150" text-anchor="start" fill="#F0F6FC" font-family="Segoe UI,Arial,sans-serif" font-size="16" font-weight="400">Medium</text><rect x="394" y="132" width="120" height="17" rx="8.5" fill="#25324D" fill-opacity=".8"/><rect id="medium-fill" x="394" y="132" width="21.429" height="17" rx="8.5" fill="url(#medium-bar)"/><text x="574" y="151" text-anchor="end" fill="#FFB800" font-family="Segoe UI,Arial,sans-serif" font-size="21" font-weight="700">5</text><defs><linearGradient id="hard-bar"><stop stop-color="#FF3B54"/><stop offset="1" stop-color="#FF7380"/></linearGradient></defs><circle cx="307" cy="184" r="8" fill="#FF3B54"/><text x="325" y="190" text-anchor="start" fill="#F0F6FC" font-family="Segoe UI,Arial,sans-serif" font-size="16" font-weight="400">Hard</text><rect x="394" y="172" width="120" height="17" rx="8.5" fill="#25324D" fill-opacity=".8"/><text x="574" y="191" text-anchor="end" fill="#FF586D" font-family="Segoe UI,Arial,sans-serif" font-size="21" font-weight="700">0</text></svg>
