<svg xmlns="http://www.w3.org/2000/svg" width="620" height="54" viewBox="320 470 620 54" preserveAspectRatio="none" role="img" aria-labelledby="projects-board-desktop-title projects-board-desktop-desc">
<title id="projects-board-desktop-title">Architecture</title>
<desc id="projects-board-desktop-desc">Navigation for isolation-api-tests.</desc>
<defs>
  <linearGradient id="projects-board-desktop-bg" x1="0" y1="0" x2="1" y2="1"><stop stop-color="#18283e"/><stop offset=".45" stop-color="#091723"/><stop offset="1" stop-color="#162347"/></linearGradient>
  <linearGradient id="projects-board-desktop-edge" x1="0" y1="0" x2="1" y2="1"><stop stop-color="#cabfff"/><stop offset=".35" stop-color="#5387bd"/><stop offset=".75" stop-color="#809fef"/><stop offset="1" stop-color="#d3ceff"/></linearGradient>
  <linearGradient id="projects-board-desktop-glass" x1="0" y1="0" x2="1" y2="1"><stop stop-color="#d7e4ff" stop-opacity=".42"/><stop offset=".3" stop-color="#839bfc" stop-opacity=".13"/><stop offset=".7" stop-color="#608bd0" stop-opacity=".06"/><stop offset="1" stop-color="#9797ff" stop-opacity=".30"/></linearGradient>
  <linearGradient id="projects-board-desktop-blue" x1="0" y1="0" x2="1" y2="1"><stop stop-color="#a4eeff"/><stop offset=".5" stop-color="#54abff"/><stop offset="1" stop-color="#8079ff"/></linearGradient>
  <linearGradient id="projects-board-desktop-violet" x1="0" y1="0" x2="1" y2="1"><stop stop-color="#8facff"/><stop offset=".55" stop-color="#7962d9"/><stop offset="1" stop-color="#342955"/></linearGradient>
  <radialGradient id="projects-board-desktop-halo"><stop stop-color="#54baff" stop-opacity=".9"/><stop offset=".38" stop-color="#4785f2" stop-opacity=".48"/><stop offset="1" stop-color="#527aff" stop-opacity="0"/></radialGradient>
  <radialGradient id="projects-board-desktop-purple"><stop stop-color="#ac86ff" stop-opacity=".7"/><stop offset=".45" stop-color="#7958d9" stop-opacity=".32"/><stop offset="1" stop-color="#634ec3" stop-opacity="0"/></radialGradient>
  <linearGradient id="projects-board-desktop-wave" x1="0" y1="0" x2="0" y2="1"><stop stop-color="#b7a5ff" stop-opacity=".9"/><stop offset=".35" stop-color="#8461f0" stop-opacity=".55"/><stop offset="1" stop-color="#5758cb" stop-opacity=".02"/></linearGradient>
  <filter id="projects-board-desktop-glow" x="-60%" y="-60%" width="220%" height="220%"><feGaussianBlur stdDeviation="4"/></filter>
  <clipPath id="projects-board-desktop-clip"><rect x="1" y="1" width="938" height="1262" rx="22"/></clipPath>
  <clipPath id="projects-board-desktop-art-clip"><rect width="226" height="266" rx="17"/></clipPath>
</defs>
<rect x="1" y="1" width="938" height="1262" rx="22" fill="url(#projects-board-desktop-bg)" stroke="url(#projects-board-desktop-edge)"/>
<g aria-hidden="true" clip-path="url(#projects-board-desktop-clip)"><ellipse cx="940" cy="960.64" rx="394.8" ry="1074.4" fill="url(#projects-board-desktop-halo)" opacity=".65"/><ellipse cx="0" cy="1264" rx="300.8" ry="1087.04" fill="url(#projects-board-desktop-purple)" opacity=".65"/><ellipse cx="676.8" cy="0" rx="282" ry="1011.2" fill="url(#projects-board-desktop-purple)" opacity=".32"/><path d="M24 2H916" stroke="#f0efff" stroke-opacity=".44"/><path d="M8 24Q8 8 24 8H423" fill="none" stroke="#c4d8ff" stroke-opacity=".18" stroke-width="3" stroke-linecap="round" filter="url(#projects-board-desktop-glow)"/></g>
<g transform="translate(20 20)"><defs>
  <linearGradient id="projects-header-desktop-bg" x1="0" y1="0" x2="1" y2="1"><stop stop-color="#18283e"/><stop offset=".45" stop-color="#091723"/><stop offset="1" stop-color="#162347"/></linearGradient>
  <linearGradient id="projects-header-desktop-edge" x1="0" y1="0" x2="1" y2="1"><stop stop-color="#cabfff"/><stop offset=".35" stop-color="#5387bd"/><stop offset=".75" stop-color="#809fef"/><stop offset="1" stop-color="#d3ceff"/></linearGradient>
  <linearGradient id="projects-header-desktop-glass" x1="0" y1="0" x2="1" y2="1"><stop stop-color="#d7e4ff" stop-opacity=".42"/><stop offset=".3" stop-color="#839bfc" stop-opacity=".13"/><stop offset=".7" stop-color="#608bd0" stop-opacity=".06"/><stop offset="1" stop-color="#9797ff" stop-opacity=".30"/></linearGradient>
  <linearGradient id="projects-header-desktop-blue" x1="0" y1="0" x2="1" y2="1"><stop stop-color="#a4eeff"/><stop offset=".5" stop-color="#54abff"/><stop offset="1" stop-color="#8079ff"/></linearGradient>
  <linearGradient id="projects-header-desktop-violet" x1="0" y1="0" x2="1" y2="1"><stop stop-color="#8facff"/><stop offset=".55" stop-color="#7962d9"/><stop offset="1" stop-color="#342955"/></linearGradient>
  <radialGradient id="projects-header-desktop-halo"><stop stop-color="#54baff" stop-opacity=".9"/><stop offset=".38" stop-color="#4785f2" stop-opacity=".48"/><stop offset="1" stop-color="#527aff" stop-opacity="0"/></radialGradient>
  <radialGradient id="projects-header-desktop-purple"><stop stop-color="#ac86ff" stop-opacity=".7"/><stop offset=".45" stop-color="#7958d9" stop-opacity=".32"/><stop offset="1" stop-color="#634ec3" stop-opacity="0"/></radialGradient>
  <linearGradient id="projects-header-desktop-wave" x1="0" y1="0" x2="0" y2="1"><stop stop-color="#b7a5ff" stop-opacity=".9"/><stop offset=".35" stop-color="#8461f0" stop-opacity=".55"/><stop offset="1" stop-color="#5758cb" stop-opacity=".02"/></linearGradient>
  <filter id="projects-header-desktop-glow" x="-60%" y="-60%" width="220%" height="220%"><feGaussianBlur stdDeviation="4"/></filter>
  <clipPath id="projects-header-desktop-clip"><rect x="1" y="1" width="898" height="148" rx="22"/></clipPath>
  <clipPath id="projects-header-desktop-art-clip"><rect width="226" height="266" rx="17"/></clipPath>
</defs>
<g aria-hidden="true" transform="translate(24 25)"><rect width="58" height="58" rx="14" fill="url(#projects-header-desktop-glass)" stroke="#8996c8"/><rect x="17" y="17" width="10" height="10" rx="1.5" fill="none" stroke="#a9bcff" stroke-width="2"/><rect x="32" y="17" width="10" height="10" rx="1.5" fill="none" stroke="#a9bcff" stroke-width="2"/><rect x="17" y="32" width="10" height="10" rx="1.5" fill="none" stroke="#a9bcff" stroke-width="2"/><rect x="32" y="32" width="10" height="10" rx="1.5" fill="none" stroke="#a9bcff" stroke-width="2"/></g><text x="100" y="66" font-family="Segoe UI,Arial,sans-serif" font-size="36" font-weight="700" fill="#f3f6ff">My <tspan fill="#82a8ff">Projects</tspan></text><text x="100" y="100" font-family="Segoe UI,Arial,sans-serif" font-size="15.5" font-weight="400" fill="#b2c2de">A collection of QA automation and performance testing projects with</text><text x="100" y="122" font-family="Segoe UI,Arial,sans-serif" font-size="15.5" font-weight="400" fill="#b2c2de">real-world scenarios, modern tools and CI/CD.</text><g transform="translate(648 39)"><rect width="228" height="38" rx="19" fill="url(#projects-header-desktop-glass)" stroke="#6888d6"/><g transform="translate(12 9) scale(0.833333)" fill="#f0f5ff"><path d="M12 1a11 11 0 0 0-3.5 21.4c.5.1.7-.2.7-.5v-2c-2.8.6-3.4-1.2-3.4-1.2-.5-1.2-1.2-1.5-1.2-1.5-1-.7.1-.7.1-.7 1.1.1 1.7 1.1 1.7 1.1 1 1.6 2.5 1.1 3 .8.1-.7.4-1.1.7-1.4-2.3-.3-4.7-1.2-4.7-5a4 4 0 0 1 1-2.8c-.1-.3-.4-1.3.1-2.7 0 0 .9-.3 2.9 1.1a10 10 0 0 1 5.2 0C16.6 6.2 17.5 6.5 17.5 6.5c.5 1.4.2 2.4.1 2.7a4 4 0 0 1 1 2.8c0 3.8-2.4 4.7-4.7 5 .4.3.7.9.7 1.8v3.1c0 .3.2.6.7.5A11 11 0 0 0 12 1Z"/></g><text x="42" y="24" font-family="Segoe UI,Arial,sans-serif" font-size="13.5" font-weight="500" fill="#f2f6ff">View all repositories</text><path d="m211 13 5 6-5 6" fill="none" stroke="#c9dcff" stroke-width="1.6" stroke-linecap="round"/></g>
</g><g transform="translate(20 178)"><defs>
  <linearGradient id="project-isolation-desktop-bg" x1="0" y1="0" x2="1" y2="1"><stop stop-color="#18283e"/><stop offset=".45" stop-color="#091723"/><stop offset="1" stop-color="#162347"/></linearGradient>
  <linearGradient id="project-isolation-desktop-edge" x1="0" y1="0" x2="1" y2="1"><stop stop-color="#cabfff"/><stop offset=".35" stop-color="#5387bd"/><stop offset=".75" stop-color="#809fef"/><stop offset="1" stop-color="#d3ceff"/></linearGradient>
  <linearGradient id="project-isolation-desktop-glass" x1="0" y1="0" x2="1" y2="1"><stop stop-color="#d7e4ff" stop-opacity=".42"/><stop offset=".3" stop-color="#839bfc" stop-opacity=".13"/><stop offset=".7" stop-color="#608bd0" stop-opacity=".06"/><stop offset="1" stop-color="#9797ff" stop-opacity=".30"/></linearGradient>
  <linearGradient id="project-isolation-desktop-blue" x1="0" y1="0" x2="1" y2="1"><stop stop-color="#a4eeff"/><stop offset=".5" stop-color="#54abff"/><stop offset="1" stop-color="#8079ff"/></linearGradient>
  <linearGradient id="project-isolation-desktop-violet" x1="0" y1="0" x2="1" y2="1"><stop stop-color="#8facff"/><stop offset=".55" stop-color="#7962d9"/><stop offset="1" stop-color="#342955"/></linearGradient>
  <radialGradient id="project-isolation-desktop-halo"><stop stop-color="#54baff" stop-opacity=".9"/><stop offset=".38" stop-color="#4785f2" stop-opacity=".48"/><stop offset="1" stop-color="#527aff" stop-opacity="0"/></radialGradient>
  <radialGradient id="project-isolation-desktop-purple"><stop stop-color="#ac86ff" stop-opacity=".7"/><stop offset=".45" stop-color="#7958d9" stop-opacity=".32"/><stop offset="1" stop-color="#634ec3" stop-opacity="0"/></radialGradient>
  <linearGradient id="project-isolation-desktop-wave" x1="0" y1="0" x2="0" y2="1"><stop stop-color="#b7a5ff" stop-opacity=".9"/><stop offset=".35" stop-color="#8461f0" stop-opacity=".55"/><stop offset="1" stop-color="#5758cb" stop-opacity=".02"/></linearGradient>
  <filter id="project-isolation-desktop-glow" x="-60%" y="-60%" width="220%" height="220%"><feGaussianBlur stdDeviation="4"/></filter>
  <clipPath id="project-isolation-desktop-clip"><rect x="1" y="1" width="898" height="344" rx="22"/></clipPath>
  <clipPath id="project-isolation-desktop-art-clip"><rect width="226" height="266" rx="17"/></clipPath>
</defs>
<rect x="1" y="1" width="898" height="344" rx="22" fill="url(#project-isolation-desktop-bg)" stroke="url(#project-isolation-desktop-edge)"/>
<g aria-hidden="true" clip-path="url(#project-isolation-desktop-clip)"><ellipse cx="900" cy="262.96" rx="378" ry="294.1" fill="url(#project-isolation-desktop-halo)" opacity=".65"/><ellipse cx="0" cy="346" rx="288" ry="297.56" fill="url(#project-isolation-desktop-purple)" opacity=".65"/><ellipse cx="648" cy="0" rx="270" ry="276.8" fill="url(#project-isolation-desktop-purple)" opacity=".32"/><path d="M24 2H876" stroke="#f0efff" stroke-opacity=".44"/><path d="M8 24Q8 8 24 8H405" fill="none" stroke="#c4d8ff" stroke-opacity=".18" stroke-width="3" stroke-linecap="round" filter="url(#project-isolation-desktop-glow)"/></g>
<g aria-hidden="true" transform="translate(24 28) scale(1)"><rect x="1" y="1" width="78" height="78" rx="18" fill="url(#project-isolation-desktop-glass)" stroke="#8298d6"/><ellipse cx="40" cy="44" rx="32" ry="30" fill="url(#project-isolation-desktop-halo)"/><g filter="url(#project-isolation-desktop-glow)"><g transform="translate(20 18) scale(0.5)" opacity="1" stroke="#b7d9ff" stroke-width="1.3" stroke-linejoin="round">
<path d="M0 24 40 0 80 24 40 48Z" fill="url(#project-isolation-desktop-blue)" fill-opacity=".62"/>
<path d="M0 24 40 48V92L0 68Z" fill="url(#project-isolation-desktop-blue)" fill-opacity=".28"/>
<path d="M40 48 80 24V68L40 92Z" fill="url(#project-isolation-desktop-violet)" fill-opacity=".75"/>
<path d="M4 28 36 47V80L4 63Z" fill="#91c9ff" fill-opacity=".13" stroke="none"/>
<path d="M0 24 40 48 80 24M40 48V92" fill="none" stroke="#ddf4ff"/>
</g></g><g transform="translate(20 18) scale(0.5)" opacity="1" stroke="#b7d9ff" stroke-width="1.3" stroke-linejoin="round">
<path d="M0 24 40 0 80 24 40 48Z" fill="url(#project-isolation-desktop-blue)" fill-opacity=".62"/>
<path d="M0 24 40 48V92L0 68Z" fill="url(#project-isolation-desktop-blue)" fill-opacity=".28"/>
<path d="M40 48 80 24V68L40 92Z" fill="url(#project-isolation-desktop-violet)" fill-opacity=".75"/>
<path d="M4 28 36 47V80L4 63Z" fill="#91c9ff" fill-opacity=".13" stroke="none"/>
<path d="M0 24 40 48 80 24M40 48V92" fill="none" stroke="#ddf4ff"/>
</g></g><text x="132" y="57" font-family="Segoe UI,Arial,sans-serif" font-size="28" font-weight="650" fill="#f3f6ff">isolation-api-tests</text><text x="132" y="85" font-family="Segoe UI,Arial,sans-serif" font-size="18" font-weight="400" fill="#9ccaff">Isolated API &amp; Integration Testing</text><g transform="translate(423 36)"><rect width="94" height="24" rx="12" fill="#305593" stroke="#82acfa"/><path d="m13 5 2 4 5 .7-3.5 3.4.8 4.9L13 16l-4.3 2.3.8-4.9L6 9.7l5-.7Z" fill="#e0e5ff"/><text x="26" y="16.5" font-family="Segoe UI,Arial,sans-serif" font-size="12" font-weight="600" fill="#f1f6ff">Featured</text></g><g aria-hidden="true" transform="translate(653 20) scale(1)"><rect width="226" height="266" rx="17" fill="url(#project-isolation-desktop-glass)" stroke="#7395da" stroke-opacity=".45"/><g clip-path="url(#project-isolation-desktop-art-clip)"><ellipse cx="226" cy="266" rx="210" ry="230" fill="url(#project-isolation-desktop-halo)" opacity=".8"/><ellipse cx="30" cy="0" rx="190" ry="190" fill="url(#project-isolation-desktop-purple)" opacity=".45"/><g stroke="#4b80b9" stroke-width=".6" opacity=".3"><path d="M-80 150 226 303M0 90 226 -23"/><path d="M-45 150 226 285.5M0 107.5 226 -5.5"/><path d="M-10 150 226 268M0 125 226 12"/><path d="M25 150 226 250.5M0 142.5 226 29.5"/><path d="M60 150 226 233M0 160 226 47"/><path d="M95 150 226 215.5M0 177.5 226 64.5"/><path d="M130 150 226 198M0 195 226 82"/><path d="M165 150 226 180.5M0 212.5 226 99.5"/></g><path d="M18 209 112 159 206 209 112 258Z" fill="#79aaff" fill-opacity=".10" stroke="#679dff" stroke-opacity=".65"/><g opacity=".7" filter="url(#project-isolation-desktop-glow)"><g transform="translate(60 60) scale(1.3)" opacity="1" stroke="#b7d9ff" stroke-width="1.3" stroke-linejoin="round">
<path d="M0 24 40 0 80 24 40 48Z" fill="url(#project-isolation-desktop-blue)" fill-opacity=".62"/>
<path d="M0 24 40 48V92L0 68Z" fill="url(#project-isolation-desktop-blue)" fill-opacity=".28"/>
<path d="M40 48 80 24V68L40 92Z" fill="url(#project-isolation-desktop-violet)" fill-opacity=".75"/>
<path d="M4 28 36 47V80L4 63Z" fill="#91c9ff" fill-opacity=".13" stroke="none"/>
<path d="M0 24 40 48 80 24M40 48V92" fill="none" stroke="#ddf4ff"/>
</g></g><g transform="translate(60 124) scale(1.3)" opacity="0.32" stroke="#b7d9ff" stroke-width="1.3" stroke-linejoin="round">
<path d="M0 24 40 0 80 24 40 48Z" fill="url(#project-isolation-desktop-blue)" fill-opacity=".62"/>
<path d="M0 24 40 48V92L0 68Z" fill="url(#project-isolation-desktop-blue)" fill-opacity=".28"/>
<path d="M40 48 80 24V68L40 92Z" fill="url(#project-isolation-desktop-violet)" fill-opacity=".75"/>
<path d="M4 28 36 47V80L4 63Z" fill="#91c9ff" fill-opacity=".13" stroke="none"/>
<path d="M0 24 40 48 80 24M40 48V92" fill="none" stroke="#ddf4ff"/>
</g><g transform="translate(60 92) scale(1.3)" opacity="0.55" stroke="#b7d9ff" stroke-width="1.3" stroke-linejoin="round">
<path d="M0 24 40 0 80 24 40 48Z" fill="url(#project-isolation-desktop-blue)" fill-opacity=".62"/>
<path d="M0 24 40 48V92L0 68Z" fill="url(#project-isolation-desktop-blue)" fill-opacity=".28"/>
<path d="M40 48 80 24V68L40 92Z" fill="url(#project-isolation-desktop-violet)" fill-opacity=".75"/>
<path d="M4 28 36 47V80L4 63Z" fill="#91c9ff" fill-opacity=".13" stroke="none"/>
<path d="M0 24 40 48 80 24M40 48V92" fill="none" stroke="#ddf4ff"/>
</g><g transform="translate(60 60) scale(1.3)" opacity="1" stroke="#b7d9ff" stroke-width="1.3" stroke-linejoin="round">
<path d="M0 24 40 0 80 24 40 48Z" fill="url(#project-isolation-desktop-blue)" fill-opacity=".62"/>
<path d="M0 24 40 48V92L0 68Z" fill="url(#project-isolation-desktop-blue)" fill-opacity=".28"/>
<path d="M40 48 80 24V68L40 92Z" fill="url(#project-isolation-desktop-violet)" fill-opacity=".75"/>
<path d="M4 28 36 47V80L4 63Z" fill="#91c9ff" fill-opacity=".13" stroke="none"/>
<path d="M0 24 40 48 80 24M40 48V92" fill="none" stroke="#ddf4ff"/>
</g></g></g><text x="132" y="118" font-family="Segoe UI,Arial,sans-serif" font-size="22" font-weight="400" fill="#e0e8f6">Isolated API testing with custom HTTP/gRPC</text><text x="132" y="142" font-family="Segoe UI,Arial,sans-serif" font-size="22" font-weight="400" fill="#e0e8f6">mock servers, real service interactions, and</text><text x="132" y="166" font-family="Segoe UI,Arial,sans-serif" font-size="22" font-weight="400" fill="#e0e8f6">validation of Kafka-driven operations and</text><text x="132" y="190" font-family="Segoe UI,Arial,sans-serif" font-size="22" font-weight="400" fill="#e0e8f6">PostgreSQL data.</text><g aria-label="Technology stack"><g transform="translate(132 210)"><rect width="74" height="28" rx="14" fill="#1a3c70" fill-opacity=".65" stroke="#4388e3"/><rect width="74" height="28" rx="14" fill="url(#project-isolation-desktop-glass)"/><path d="M13 2H61" stroke="#ffffff" stroke-opacity=".15"/><text x="12" y="19" font-family="Segoe UI,Arial,sans-serif" font-size="15" font-weight="400" fill="#baddff">Python</text></g><g transform="translate(214 210)"><rect width="69" height="28" rx="14" fill="#16422c" fill-opacity=".65" stroke="#329967"/><rect width="69" height="28" rx="14" fill="url(#project-isolation-desktop-glass)"/><path d="M13 2H56" stroke="#ffffff" stroke-opacity=".15"/><text x="12" y="19" font-family="Segoe UI,Arial,sans-serif" font-size="15" font-weight="400" fill="#adf7c7">Pytest</text></g><g transform="translate(291 210)"><rect width="78" height="28" rx="14" fill="#12434b" fill-opacity=".65" stroke="#24a7b1"/><rect width="78" height="28" rx="14" fill="url(#project-isolation-desktop-glass)"/><path d="M13 2H65" stroke="#ffffff" stroke-opacity=".15"/><text x="12" y="19" font-family="Segoe UI,Arial,sans-serif" font-size="15" font-weight="400" fill="#93f2f1">FastAPI</text></g><g transform="translate(377 210)"><rect width="69" height="28" rx="14" fill="#12434b" fill-opacity=".65" stroke="#24a7b1"/><rect width="69" height="28" rx="14" fill="url(#project-isolation-desktop-glass)"/><path d="M13 2H56" stroke="#ffffff" stroke-opacity=".15"/><text x="12" y="19" font-family="Segoe UI,Arial,sans-serif" font-size="15" font-weight="400" fill="#93f2f1">HTTPX</text></g><g transform="translate(454 210)"><rect width="60" height="28" rx="14" fill="#12434b" fill-opacity=".65" stroke="#24a7b1"/><rect width="60" height="28" rx="14" fill="url(#project-isolation-desktop-glass)"/><path d="M13 2H47" stroke="#ffffff" stroke-opacity=".15"/><text x="12" y="19" font-family="Segoe UI,Arial,sans-serif" font-size="15" font-weight="400" fill="#93f2f1">gRPC</text></g><g transform="translate(522 210)"><rect width="65" height="28" rx="14" fill="#49381c" fill-opacity=".65" stroke="#cda14d"/><rect width="65" height="28" rx="14" fill="url(#project-isolation-desktop-glass)"/><path d="M13 2H52" stroke="#ffffff" stroke-opacity=".15"/><text x="12" y="19" font-family="Segoe UI,Arial,sans-serif" font-size="15" font-weight="400" fill="#f5e0a8">Kafka</text></g><g transform="translate(132 244)"><rect width="105" height="28" rx="14" fill="#49381c" fill-opacity=".65" stroke="#cda14d"/><rect width="105" height="28" rx="14" fill="url(#project-isolation-desktop-glass)"/><path d="M13 2H92" stroke="#ffffff" stroke-opacity=".15"/><text x="12" y="19" font-family="Segoe UI,Arial,sans-serif" font-size="15" font-weight="400" fill="#f5e0a8">PostgreSQL</text></g><g transform="translate(245 244)"><rect width="74" height="28" rx="14" fill="#262b62" fill-opacity=".65" stroke="#6376d8"/><rect width="74" height="28" rx="14" fill="url(#project-isolation-desktop-glass)"/><path d="M13 2H61" stroke="#ffffff" stroke-opacity=".15"/><text x="12" y="19" font-family="Segoe UI,Arial,sans-serif" font-size="15" font-weight="400" fill="#d4d9ff">Docker</text></g><g transform="translate(327 244)"><rect width="65" height="28" rx="14" fill="#16422c" fill-opacity=".65" stroke="#329967"/><rect width="65" height="28" rx="14" fill="url(#project-isolation-desktop-glass)"/><path d="M13 2H52" stroke="#ffffff" stroke-opacity=".15"/><text x="12" y="19" font-family="Segoe UI,Arial,sans-serif" font-size="15" font-weight="400" fill="#adf7c7">Allure</text></g></g><g aria-label="Source code"><rect x="132" y="300" width="160.3" height="38" rx="14" fill="url(#project-isolation-desktop-glass)" stroke="#829cda" stroke-opacity=".6"/><g transform="translate(140 308) scale(0.875)" fill="#f0f5ff"><path d="M12 1a11 11 0 0 0-3.5 21.4c.5.1.7-.2.7-.5v-2c-2.8.6-3.4-1.2-3.4-1.2-.5-1.2-1.2-1.5-1.2-1.5-1-.7.1-.7.1-.7 1.1.1 1.7 1.1 1.7 1.1 1 1.6 2.5 1.1 3 .8.1-.7.4-1.1.7-1.4-2.3-.3-4.7-1.2-4.7-5a4 4 0 0 1 1-2.8c-.1-.3-.4-1.3.1-2.7 0 0 .9-.3 2.9 1.1a10 10 0 0 1 5.2 0C16.6 6.2 17.5 6.5 17.5 6.5c.5 1.4.2 2.4.1 2.7a4 4 0 0 1 1 2.8c0 3.8-2.4 4.7-4.7 5 .4.3.7.9.7 1.8v3.1c0 .3.2.6.7.5A11 11 0 0 0 12 1Z"/></g><text x="168" y="325" font-family="Segoe UI,Arial,sans-serif" font-size="15" font-weight="400" fill="#d2e5ff">Source code</text><path d="M265.3 320h12m-5-5 5 5-5 5" fill="none" stroke="#c5dfff" stroke-width="1.5"/></g><g aria-label="Architecture"><rect x="308.3" y="300" width="136.25" height="38" rx="14" fill="url(#project-isolation-desktop-glass)" stroke="#829cda" stroke-opacity=".6"/><path d="M319.3 306h10l5 5v18H319.3Zm10 0v5h5M323.3 316h7M323.3 321h7" fill="none" stroke="#d2e5ff" stroke-width="1.5" stroke-linejoin="round"/><text x="342.3" y="325" font-family="Segoe UI,Arial,sans-serif" font-size="15" font-weight="400" fill="#d2e5ff">Architecture</text></g>
</g><g transform="translate(20 538)"><defs>
  <linearGradient id="project-performance-desktop-bg" x1="0" y1="0" x2="1" y2="1"><stop stop-color="#18283e"/><stop offset=".45" stop-color="#091723"/><stop offset="1" stop-color="#162347"/></linearGradient>
  <linearGradient id="project-performance-desktop-edge" x1="0" y1="0" x2="1" y2="1"><stop stop-color="#cabfff"/><stop offset=".35" stop-color="#5387bd"/><stop offset=".75" stop-color="#809fef"/><stop offset="1" stop-color="#d3ceff"/></linearGradient>
  <linearGradient id="project-performance-desktop-glass" x1="0" y1="0" x2="1" y2="1"><stop stop-color="#d7e4ff" stop-opacity=".42"/><stop offset=".3" stop-color="#839bfc" stop-opacity=".13"/><stop offset=".7" stop-color="#608bd0" stop-opacity=".06"/><stop offset="1" stop-color="#9797ff" stop-opacity=".30"/></linearGradient>
  <linearGradient id="project-performance-desktop-blue" x1="0" y1="0" x2="1" y2="1"><stop stop-color="#a4eeff"/><stop offset=".5" stop-color="#54abff"/><stop offset="1" stop-color="#8079ff"/></linearGradient>
  <linearGradient id="project-performance-desktop-violet" x1="0" y1="0" x2="1" y2="1"><stop stop-color="#8facff"/><stop offset=".55" stop-color="#7962d9"/><stop offset="1" stop-color="#342955"/></linearGradient>
  <radialGradient id="project-performance-desktop-halo"><stop stop-color="#54baff" stop-opacity=".9"/><stop offset=".38" stop-color="#4785f2" stop-opacity=".48"/><stop offset="1" stop-color="#527aff" stop-opacity="0"/></radialGradient>
  <radialGradient id="project-performance-desktop-purple"><stop stop-color="#ac86ff" stop-opacity=".7"/><stop offset=".45" stop-color="#7958d9" stop-opacity=".32"/><stop offset="1" stop-color="#634ec3" stop-opacity="0"/></radialGradient>
  <linearGradient id="project-performance-desktop-wave" x1="0" y1="0" x2="0" y2="1"><stop stop-color="#b7a5ff" stop-opacity=".9"/><stop offset=".35" stop-color="#8461f0" stop-opacity=".55"/><stop offset="1" stop-color="#5758cb" stop-opacity=".02"/></linearGradient>
  <filter id="project-performance-desktop-glow" x="-60%" y="-60%" width="220%" height="220%"><feGaussianBlur stdDeviation="4"/></filter>
  <clipPath id="project-performance-desktop-clip"><rect x="1" y="1" width="898" height="344" rx="22"/></clipPath>
  <clipPath id="project-performance-desktop-art-clip"><rect width="226" height="266" rx="17"/></clipPath>
</defs>
<rect x="1" y="1" width="898" height="344" rx="22" fill="url(#project-performance-desktop-bg)" stroke="url(#project-performance-desktop-edge)"/>
<g aria-hidden="true" clip-path="url(#project-performance-desktop-clip)"><ellipse cx="900" cy="262.96" rx="378" ry="294.1" fill="url(#project-performance-desktop-halo)" opacity=".65"/><ellipse cx="0" cy="346" rx="288" ry="297.56" fill="url(#project-performance-desktop-purple)" opacity=".65"/><ellipse cx="648" cy="0" rx="270" ry="276.8" fill="url(#project-performance-desktop-purple)" opacity=".32"/><path d="M24 2H876" stroke="#f0efff" stroke-opacity=".44"/><path d="M8 24Q8 8 24 8H405" fill="none" stroke="#c4d8ff" stroke-opacity=".18" stroke-width="3" stroke-linecap="round" filter="url(#project-performance-desktop-glow)"/></g>
<g aria-hidden="true" transform="translate(24 28) scale(1)"><rect x="1" y="1" width="78" height="78" rx="18" fill="url(#project-performance-desktop-glass)" stroke="#8298d6"/><ellipse cx="40" cy="44" rx="32" ry="30" fill="url(#project-performance-desktop-halo)"/><path d="M17 60A29 29 0 1 1 63 60" fill="none" stroke="url(#project-performance-desktop-blue)" stroke-width="4"/>
<path d="M20 48 25 46M23 29 28 32M40 20V26M57 29 52 32M60 48 55 46" stroke="#a3c7ff" stroke-width="3" stroke-linecap="round"/>
<path d="M40 47 54 31" stroke="#7eaaff" stroke-width="4" stroke-linecap="round"/><circle cx="40" cy="47" r="5" fill="#9ac9ff"/></g><text x="132" y="57" font-family="Segoe UI,Arial,sans-serif" font-size="28" font-weight="650" fill="#f3f6ff">performance-tests</text><text x="132" y="85" font-family="Segoe UI,Arial,sans-serif" font-size="18" font-weight="400" fill="#9ccaff">Performance &amp; Load Testing</text><g aria-hidden="true" transform="translate(653 20) scale(1)"><rect width="226" height="266" rx="17" fill="url(#project-performance-desktop-glass)" stroke="#7395da" stroke-opacity=".45"/><g clip-path="url(#project-performance-desktop-art-clip)"><ellipse cx="226" cy="266" rx="210" ry="230" fill="url(#project-performance-desktop-halo)" opacity=".8"/><ellipse cx="30" cy="0" rx="190" ry="190" fill="url(#project-performance-desktop-purple)" opacity=".45"/><g stroke="#6c7ad9" stroke-dasharray="2 5" opacity=".35"><path d="M35 40V226"/><path d="M82 40V226"/><path d="M130 40V226"/><path d="M177 40V226"/></g><path d="M15 192C35 164 38 117 67 139S99 197 116 129 145 53 164 70 177 112 211 58L211 246H15Z" fill="url(#project-performance-desktop-wave)"/><path d="M15 192C35 164 38 117 67 139S99 197 116 129 145 53 164 70 177 112 211 58" fill="none" stroke="#b69aff" stroke-width="5" filter="url(#project-performance-desktop-glow)"/><path d="M15 192C35 164 38 117 67 139S99 197 116 129 145 53 164 70 177 112 211 58" fill="none" stroke="#bfa4ff" stroke-width="1.8"/><path d="M15 213C35 192 52 175 75 198S106 213 130 159 169 147 211 153" fill="none" stroke="#5989e4" stroke-opacity=".6"/></g></g><text x="132" y="118" font-family="Segoe UI,Arial,sans-serif" font-size="22" font-weight="400" fill="#e0e8f6">Locust-based load testing with reusable</text><text x="132" y="142" font-family="Segoe UI,Arial,sans-serif" font-size="22" font-weight="400" fill="#e0e8f6">HTTP/gRPC clients, automated data seeding,</text><text x="132" y="166" font-family="Segoe UI,Arial,sans-serif" font-size="22" font-weight="400" fill="#e0e8f6">Prometheus/Grafana monitoring, and</text><text x="132" y="190" font-family="Segoe UI,Arial,sans-serif" font-size="22" font-weight="400" fill="#e0e8f6">CI-generated reports.</text><g aria-label="Technology stack"><g transform="translate(132 210)"><rect width="74" height="28" rx="14" fill="#1a3c70" fill-opacity=".65" stroke="#4388e3"/><rect width="74" height="28" rx="14" fill="url(#project-performance-desktop-glass)"/><path d="M13 2H61" stroke="#ffffff" stroke-opacity=".15"/><text x="12" y="19" font-family="Segoe UI,Arial,sans-serif" font-size="15" font-weight="400" fill="#baddff">Python</text></g><g transform="translate(214 210)"><rect width="74" height="28" rx="14" fill="#16422c" fill-opacity=".65" stroke="#329967"/><rect width="74" height="28" rx="14" fill="url(#project-performance-desktop-glass)"/><path d="M13 2H61" stroke="#ffffff" stroke-opacity=".15"/><text x="12" y="19" font-family="Segoe UI,Arial,sans-serif" font-size="15" font-weight="400" fill="#adf7c7">Locust</text></g><g transform="translate(296 210)"><rect width="60" height="28" rx="14" fill="#12434b" fill-opacity=".65" stroke="#24a7b1"/><rect width="60" height="28" rx="14" fill="url(#project-performance-desktop-glass)"/><path d="M13 2H47" stroke="#ffffff" stroke-opacity=".15"/><text x="12" y="19" font-family="Segoe UI,Arial,sans-serif" font-size="15" font-weight="400" fill="#93f2f1">gRPC</text></g><g transform="translate(364 210)"><rect width="69" height="28" rx="14" fill="#12434b" fill-opacity=".65" stroke="#24a7b1"/><rect width="69" height="28" rx="14" fill="url(#project-performance-desktop-glass)"/><path d="M13 2H56" stroke="#ffffff" stroke-opacity=".15"/><text x="12" y="19" font-family="Segoe UI,Arial,sans-serif" font-size="15" font-weight="400" fill="#93f2f1">HTTPX</text></g><g transform="translate(441 210)"><rect width="74" height="28" rx="14" fill="#262b62" fill-opacity=".65" stroke="#6376d8"/><rect width="74" height="28" rx="14" fill="url(#project-performance-desktop-glass)"/><path d="M13 2H61" stroke="#ffffff" stroke-opacity=".15"/><text x="12" y="19" font-family="Segoe UI,Arial,sans-serif" font-size="15" font-weight="400" fill="#d4d9ff">Docker</text></g><g transform="translate(132 244)"><rect width="109" height="28" rx="14" fill="#4b2c22" fill-opacity=".65" stroke="#bd7245"/><rect width="109" height="28" rx="14" fill="url(#project-performance-desktop-glass)"/><path d="M13 2H96" stroke="#ffffff" stroke-opacity=".15"/><text x="12" y="19" font-family="Segoe UI,Arial,sans-serif" font-size="15" font-weight="400" fill="#ffd4b7">Prometheus</text></g><g transform="translate(249 244)"><rect width="78" height="28" rx="14" fill="#4b2c22" fill-opacity=".65" stroke="#bd7245"/><rect width="78" height="28" rx="14" fill="url(#project-performance-desktop-glass)"/><path d="M13 2H65" stroke="#ffffff" stroke-opacity=".15"/><text x="12" y="19" font-family="Segoe UI,Arial,sans-serif" font-size="15" font-weight="400" fill="#ffd4b7">Grafana</text></g></g><g aria-label="Source code"><rect x="132" y="300" width="160.3" height="38" rx="14" fill="url(#project-performance-desktop-glass)" stroke="#829cda" stroke-opacity=".6"/><g transform="translate(140 308) scale(0.875)" fill="#f0f5ff"><path d="M12 1a11 11 0 0 0-3.5 21.4c.5.1.7-.2.7-.5v-2c-2.8.6-3.4-1.2-3.4-1.2-.5-1.2-1.2-1.5-1.2-1.5-1-.7.1-.7.1-.7 1.1.1 1.7 1.1 1.7 1.1 1 1.6 2.5 1.1 3 .8.1-.7.4-1.1.7-1.4-2.3-.3-4.7-1.2-4.7-5a4 4 0 0 1 1-2.8c-.1-.3-.4-1.3.1-2.7 0 0 .9-.3 2.9 1.1a10 10 0 0 1 5.2 0C16.6 6.2 17.5 6.5 17.5 6.5c.5 1.4.2 2.4.1 2.7a4 4 0 0 1 1 2.8c0 3.8-2.4 4.7-4.7 5 .4.3.7.9.7 1.8v3.1c0 .3.2.6.7.5A11 11 0 0 0 12 1Z"/></g><text x="168" y="325" font-family="Segoe UI,Arial,sans-serif" font-size="15" font-weight="400" fill="#d2e5ff">Source code</text><path d="M265.3 320h12m-5-5 5 5-5 5" fill="none" stroke="#c5dfff" stroke-width="1.5"/></g><g aria-label="Load report"><rect x="308.3" y="300" width="131.6" height="38" rx="14" fill="url(#project-performance-desktop-glass)" stroke="#829cda" stroke-opacity=".6"/><path d="M319.3 306h10l5 5v18H319.3Zm10 0v5h5M323.3 316h7M323.3 321h7" fill="none" stroke="#d2e5ff" stroke-width="1.5" stroke-linejoin="round"/><text x="342.3" y="325" font-family="Segoe UI,Arial,sans-serif" font-size="15" font-weight="400" fill="#d2e5ff">Load report</text></g>
</g><g transform="translate(20 898)"><defs>
  <linearGradient id="project-ui-desktop-bg" x1="0" y1="0" x2="1" y2="1"><stop stop-color="#18283e"/><stop offset=".45" stop-color="#091723"/><stop offset="1" stop-color="#162347"/></linearGradient>
  <linearGradient id="project-ui-desktop-edge" x1="0" y1="0" x2="1" y2="1"><stop stop-color="#cabfff"/><stop offset=".35" stop-color="#5387bd"/><stop offset=".75" stop-color="#809fef"/><stop offset="1" stop-color="#d3ceff"/></linearGradient>
  <linearGradient id="project-ui-desktop-glass" x1="0" y1="0" x2="1" y2="1"><stop stop-color="#d7e4ff" stop-opacity=".42"/><stop offset=".3" stop-color="#839bfc" stop-opacity=".13"/><stop offset=".7" stop-color="#608bd0" stop-opacity=".06"/><stop offset="1" stop-color="#9797ff" stop-opacity=".30"/></linearGradient>
  <linearGradient id="project-ui-desktop-blue" x1="0" y1="0" x2="1" y2="1"><stop stop-color="#a4eeff"/><stop offset=".5" stop-color="#54abff"/><stop offset="1" stop-color="#8079ff"/></linearGradient>
  <linearGradient id="project-ui-desktop-violet" x1="0" y1="0" x2="1" y2="1"><stop stop-color="#8facff"/><stop offset=".55" stop-color="#7962d9"/><stop offset="1" stop-color="#342955"/></linearGradient>
  <radialGradient id="project-ui-desktop-halo"><stop stop-color="#54baff" stop-opacity=".9"/><stop offset=".38" stop-color="#4785f2" stop-opacity=".48"/><stop offset="1" stop-color="#527aff" stop-opacity="0"/></radialGradient>
  <radialGradient id="project-ui-desktop-purple"><stop stop-color="#ac86ff" stop-opacity=".7"/><stop offset=".45" stop-color="#7958d9" stop-opacity=".32"/><stop offset="1" stop-color="#634ec3" stop-opacity="0"/></radialGradient>
  <linearGradient id="project-ui-desktop-wave" x1="0" y1="0" x2="0" y2="1"><stop stop-color="#b7a5ff" stop-opacity=".9"/><stop offset=".35" stop-color="#8461f0" stop-opacity=".55"/><stop offset="1" stop-color="#5758cb" stop-opacity=".02"/></linearGradient>
  <filter id="project-ui-desktop-glow" x="-60%" y="-60%" width="220%" height="220%"><feGaussianBlur stdDeviation="4"/></filter>
  <clipPath id="project-ui-desktop-clip"><rect x="1" y="1" width="898" height="344" rx="22"/></clipPath>
  <clipPath id="project-ui-desktop-art-clip"><rect width="226" height="266" rx="17"/></clipPath>
</defs>
<rect x="1" y="1" width="898" height="344" rx="22" fill="url(#project-ui-desktop-bg)" stroke="url(#project-ui-desktop-edge)"/>
<g aria-hidden="true" clip-path="url(#project-ui-desktop-clip)"><ellipse cx="900" cy="262.96" rx="378" ry="294.1" fill="url(#project-ui-desktop-halo)" opacity=".65"/><ellipse cx="0" cy="346" rx="288" ry="297.56" fill="url(#project-ui-desktop-purple)" opacity=".65"/><ellipse cx="648" cy="0" rx="270" ry="276.8" fill="url(#project-ui-desktop-purple)" opacity=".32"/><path d="M24 2H876" stroke="#f0efff" stroke-opacity=".44"/><path d="M8 24Q8 8 24 8H405" fill="none" stroke="#c4d8ff" stroke-opacity=".18" stroke-width="3" stroke-linecap="round" filter="url(#project-ui-desktop-glow)"/></g>
<g aria-hidden="true" transform="translate(24 28) scale(1)"><rect x="1" y="1" width="78" height="78" rx="18" fill="url(#project-ui-desktop-glass)" stroke="#8298d6"/><ellipse cx="40" cy="44" rx="32" ry="30" fill="url(#project-ui-desktop-halo)"/><rect x="18" y="20" width="44" height="32" rx="3" fill="#278afb" opacity=".4" filter="url(#project-ui-desktop-glow)"/>
<rect x="18" y="20" width="44" height="32" rx="3" fill="#142d52" stroke="url(#project-ui-desktop-blue)" stroke-width="3"/>
<path d="M40 54V63M29 65H51" stroke="#76baff" stroke-width="4" stroke-linecap="round"/></g><text x="132" y="57" font-family="Segoe UI,Arial,sans-serif" font-size="28" font-weight="650" fill="#f3f6ff">autotest-ui</text><text x="132" y="85" font-family="Segoe UI,Arial,sans-serif" font-size="18" font-weight="400" fill="#9ccaff">UI Test Automation</text><g aria-hidden="true" transform="translate(653 20) scale(1)"><rect width="226" height="266" rx="17" fill="url(#project-ui-desktop-glass)" stroke="#7395da" stroke-opacity=".45"/><g clip-path="url(#project-ui-desktop-art-clip)"><ellipse cx="226" cy="266" rx="210" ry="230" fill="url(#project-ui-desktop-halo)" opacity=".8"/><ellipse cx="30" cy="0" rx="190" ry="190" fill="url(#project-ui-desktop-purple)" opacity=".45"/><g transform="translate(41 36) skewY(15)" opacity="0.32"><rect width="154" height="148" rx="9" fill="url(#project-ui-desktop-blue)" fill-opacity=".23" stroke="#b3c8ff"/><rect width="154" height="148" rx="9" fill="url(#project-ui-desktop-glass)"/><path d="M1 25H153" stroke="#a8c8ff" stroke-opacity=".6"/><circle cx="12" cy="13" r="3" fill="#cc9df9"/><circle cx="23" cy="13" r="3" fill="#8abaff"/><circle cx="34" cy="13" r="3" fill="#99def0"/><rect x="13" y="39" width="24" height="92" rx="4" fill="#4b70bd" opacity=".45"/><rect x="49" y="39" width="91" height="40" rx="4" fill="#6695e4" opacity=".45"/><path d="M49 94H137M49 106H128M49 118H137M49 130H105" stroke="#739dde" stroke-width="4" stroke-linecap="round"/></g><g transform="translate(29 55) skewY(15)" opacity="0.55"><rect width="154" height="148" rx="9" fill="url(#project-ui-desktop-blue)" fill-opacity=".23" stroke="#b3c8ff"/><rect width="154" height="148" rx="9" fill="url(#project-ui-desktop-glass)"/><path d="M1 25H153" stroke="#a8c8ff" stroke-opacity=".6"/><circle cx="12" cy="13" r="3" fill="#cc9df9"/><circle cx="23" cy="13" r="3" fill="#8abaff"/><circle cx="34" cy="13" r="3" fill="#99def0"/><rect x="13" y="39" width="24" height="92" rx="4" fill="#4b70bd" opacity=".45"/><rect x="49" y="39" width="91" height="40" rx="4" fill="#6695e4" opacity=".45"/><path d="M49 94H137M49 106H128M49 118H137M49 130H105" stroke="#739dde" stroke-width="4" stroke-linecap="round"/></g><g transform="translate(17 74) skewY(15)" opacity="0.9"><rect width="154" height="148" rx="9" fill="url(#project-ui-desktop-blue)" fill-opacity=".23" stroke="#b3c8ff"/><rect width="154" height="148" rx="9" fill="url(#project-ui-desktop-glass)"/><path d="M1 25H153" stroke="#a8c8ff" stroke-opacity=".6"/><circle cx="12" cy="13" r="3" fill="#cc9df9"/><circle cx="23" cy="13" r="3" fill="#8abaff"/><circle cx="34" cy="13" r="3" fill="#99def0"/><rect x="13" y="39" width="24" height="92" rx="4" fill="#4b70bd" opacity=".45"/><rect x="49" y="39" width="91" height="40" rx="4" fill="#6695e4" opacity=".45"/><path d="M49 94H137M49 106H128M49 118H137M49 130H105" stroke="#739dde" stroke-width="4" stroke-linecap="round"/></g></g></g><text x="132" y="118" font-family="Segoe UI,Arial,sans-serif" font-size="22" font-weight="400" fill="#e0e8f6">Playwright UI automation with layered Page</text><text x="132" y="142" font-family="Segoe UI,Arial,sans-serif" font-size="22" font-weight="400" fill="#e0e8f6">Object architecture, parallel cross-browser</text><text x="132" y="166" font-family="Segoe UI,Arial,sans-serif" font-size="22" font-weight="400" fill="#e0e8f6">runs, in-memory authentication state, Allure</text><text x="132" y="190" font-family="Segoe UI,Arial,sans-serif" font-size="22" font-weight="400" fill="#e0e8f6">reporting, and CI/CD.</text><g aria-label="Technology stack"><g transform="translate(132 210)"><rect width="74" height="28" rx="14" fill="#1a3c70" fill-opacity=".65" stroke="#4388e3"/><rect width="74" height="28" rx="14" fill="url(#project-ui-desktop-glass)"/><path d="M13 2H61" stroke="#ffffff" stroke-opacity=".15"/><text x="12" y="19" font-family="Segoe UI,Arial,sans-serif" font-size="15" font-weight="400" fill="#baddff">Python</text></g><g transform="translate(214 210)"><rect width="100" height="28" rx="14" fill="#16422c" fill-opacity=".65" stroke="#329967"/><rect width="100" height="28" rx="14" fill="url(#project-ui-desktop-glass)"/><path d="M13 2H87" stroke="#ffffff" stroke-opacity=".15"/><text x="12" y="19" font-family="Segoe UI,Arial,sans-serif" font-size="15" font-weight="400" fill="#adf7c7">Playwright</text></g><g transform="translate(322 210)"><rect width="69" height="28" rx="14" fill="#16422c" fill-opacity=".65" stroke="#329967"/><rect width="69" height="28" rx="14" fill="url(#project-ui-desktop-glass)"/><path d="M13 2H56" stroke="#ffffff" stroke-opacity=".15"/><text x="12" y="19" font-family="Segoe UI,Arial,sans-serif" font-size="15" font-weight="400" fill="#adf7c7">Pytest</text></g><g transform="translate(399 210)"><rect width="115" height="28" rx="14" fill="#16422c" fill-opacity=".65" stroke="#329967"/><rect width="115" height="28" rx="14" fill="url(#project-ui-desktop-glass)"/><path d="M13 2H102" stroke="#ffffff" stroke-opacity=".15"/><text x="12" y="19" font-family="Segoe UI,Arial,sans-serif" font-size="15" font-weight="400" fill="#adf7c7">pytest-xdist</text></g><g transform="translate(522 210)"><rect width="69" height="28" rx="14" fill="#262b62" fill-opacity=".65" stroke="#6376d8"/><rect width="69" height="28" rx="14" fill="url(#project-ui-desktop-glass)"/><path d="M13 2H56" stroke="#ffffff" stroke-opacity=".15"/><text x="12" y="19" font-family="Segoe UI,Arial,sans-serif" font-size="15" font-weight="400" fill="#d4d9ff">Poetry</text></g><g transform="translate(132 244)"><rect width="65" height="28" rx="14" fill="#16422c" fill-opacity=".65" stroke="#329967"/><rect width="65" height="28" rx="14" fill="url(#project-ui-desktop-glass)"/><path d="M13 2H52" stroke="#ffffff" stroke-opacity=".15"/><text x="12" y="19" font-family="Segoe UI,Arial,sans-serif" font-size="15" font-weight="400" fill="#adf7c7">Allure</text></g><g transform="translate(205 244)"><rect width="51" height="28" rx="14" fill="#382650" fill-opacity=".65" stroke="#a17bdd"/><rect width="51" height="28" rx="14" fill="url(#project-ui-desktop-glass)"/><path d="M13 2H38" stroke="#ffffff" stroke-opacity=".15"/><text x="12" y="19" font-family="Segoe UI,Arial,sans-serif" font-size="15" font-weight="400" fill="#e8d1ff">Ruff</text></g><g transform="translate(264 244)"><rect width="64" height="28" rx="14" fill="#382650" fill-opacity=".65" stroke="#a17bdd"/><rect width="64" height="28" rx="14" fill="url(#project-ui-desktop-glass)"/><path d="M13 2H51" stroke="#ffffff" stroke-opacity=".15"/><text x="12" y="19" font-family="Segoe UI,Arial,sans-serif" font-size="15" font-weight="400" fill="#e8d1ff">Mypy</text></g><g transform="translate(336 244)"><rect width="74" height="28" rx="14" fill="#4b2c22" fill-opacity=".65" stroke="#bd7245"/><rect width="74" height="28" rx="14" fill="url(#project-ui-desktop-glass)"/><path d="M13 2H61" stroke="#ffffff" stroke-opacity=".15"/><text x="12" y="19" font-family="Segoe UI,Arial,sans-serif" font-size="15" font-weight="400" fill="#ffd4b7">Loguru</text></g></g><g aria-label="Source code"><rect x="132" y="300" width="160.3" height="38" rx="14" fill="url(#project-ui-desktop-glass)" stroke="#829cda" stroke-opacity=".6"/><g transform="translate(140 308) scale(0.875)" fill="#f0f5ff"><path d="M12 1a11 11 0 0 0-3.5 21.4c.5.1.7-.2.7-.5v-2c-2.8.6-3.4-1.2-3.4-1.2-.5-1.2-1.2-1.5-1.2-1.5-1-.7.1-.7.1-.7 1.1.1 1.7 1.1 1.7 1.1 1 1.6 2.5 1.1 3 .8.1-.7.4-1.1.7-1.4-2.3-.3-4.7-1.2-4.7-5a4 4 0 0 1 1-2.8c-.1-.3-.4-1.3.1-2.7 0 0 .9-.3 2.9 1.1a10 10 0 0 1 5.2 0C16.6 6.2 17.5 6.5 17.5 6.5c.5 1.4.2 2.4.1 2.7a4 4 0 0 1 1 2.8c0 3.8-2.4 4.7-4.7 5 .4.3.7.9.7 1.8v3.1c0 .3.2.6.7.5A11 11 0 0 0 12 1Z"/></g><text x="168" y="325" font-family="Segoe UI,Arial,sans-serif" font-size="15" font-weight="400" fill="#d2e5ff">Source code</text><path d="M265.3 320h12m-5-5 5 5-5 5" fill="none" stroke="#c5dfff" stroke-width="1.5"/></g><g aria-label="Test report"><rect x="308.3" y="300" width="127.25" height="38" rx="14" fill="url(#project-ui-desktop-glass)" stroke="#829cda" stroke-opacity=".6"/><path d="M319.3 306h10l5 5v18H319.3Zm10 0v5h5M323.3 316h7M323.3 321h7" fill="none" stroke="#d2e5ff" stroke-width="1.5" stroke-linejoin="round"/><text x="342.3" y="325" font-family="Segoe UI,Arial,sans-serif" font-size="15" font-weight="400" fill="#d2e5ff">Test report</text></g>
</g>

</svg>
