<svg xmlns="http://www.w3.org/2000/svg" width="392" height="356" viewBox="0 644 392 356" role="img" aria-labelledby="projects-board-mobile-title projects-board-mobile-desc">
<title id="projects-board-mobile-title">performance-tests — Performance &amp; Load Testing</title>
<desc id="projects-board-mobile-desc">Locust-based load testing with reusable HTTP/gRPC clients, automated data seeding, Prometheus/Grafana monitoring, and CI-generated reports. Technologies: Python, Locust, gRPC, HTTPX, Docker, Prometheus, Grafana.</desc>
<defs>
  <linearGradient id="projects-board-mobile-bg" x1="0" y1="0" x2="1" y2="1"><stop stop-color="#18283e"/><stop offset=".45" stop-color="#091723"/><stop offset="1" stop-color="#162347"/></linearGradient>
  <linearGradient id="projects-board-mobile-edge" x1="0" y1="0" x2="1" y2="1"><stop stop-color="#cabfff"/><stop offset=".35" stop-color="#5387bd"/><stop offset=".75" stop-color="#809fef"/><stop offset="1" stop-color="#d3ceff"/></linearGradient>
  <linearGradient id="projects-board-mobile-glass" x1="0" y1="0" x2="1" y2="1"><stop stop-color="#d7e4ff" stop-opacity=".42"/><stop offset=".3" stop-color="#839bfc" stop-opacity=".13"/><stop offset=".7" stop-color="#608bd0" stop-opacity=".06"/><stop offset="1" stop-color="#9797ff" stop-opacity=".30"/></linearGradient>
  <linearGradient id="projects-board-mobile-blue" x1="0" y1="0" x2="1" y2="1"><stop stop-color="#a4eeff"/><stop offset=".5" stop-color="#54abff"/><stop offset="1" stop-color="#8079ff"/></linearGradient>
  <linearGradient id="projects-board-mobile-violet" x1="0" y1="0" x2="1" y2="1"><stop stop-color="#8facff"/><stop offset=".55" stop-color="#7962d9"/><stop offset="1" stop-color="#342955"/></linearGradient>
  <radialGradient id="projects-board-mobile-halo"><stop stop-color="#54baff" stop-opacity=".9"/><stop offset=".38" stop-color="#4785f2" stop-opacity=".48"/><stop offset="1" stop-color="#527aff" stop-opacity="0"/></radialGradient>
  <radialGradient id="projects-board-mobile-purple"><stop stop-color="#ac86ff" stop-opacity=".7"/><stop offset=".45" stop-color="#7958d9" stop-opacity=".32"/><stop offset="1" stop-color="#634ec3" stop-opacity="0"/></radialGradient>
  <linearGradient id="projects-board-mobile-wave" x1="0" y1="0" x2="0" y2="1"><stop stop-color="#b7a5ff" stop-opacity=".9"/><stop offset=".35" stop-color="#8461f0" stop-opacity=".55"/><stop offset="1" stop-color="#5758cb" stop-opacity=".02"/></linearGradient>
  <filter id="projects-board-mobile-glow" x="-60%" y="-60%" width="220%" height="220%"><feGaussianBlur stdDeviation="4"/></filter>
  <clipPath id="projects-board-mobile-clip"><rect x="1" y="1" width="390" height="1478" rx="22"/></clipPath>
  <clipPath id="projects-board-mobile-art-clip"><rect width="226" height="266" rx="17"/></clipPath>
</defs>
<rect x="1" y="1" width="390" height="1478" rx="22" fill="url(#projects-board-mobile-bg)" stroke="url(#projects-board-mobile-edge)"/>
<g aria-hidden="true" clip-path="url(#projects-board-mobile-clip)"><ellipse cx="392" cy="1124.8" rx="164.64" ry="1258" fill="url(#projects-board-mobile-halo)" opacity=".65"/><ellipse cx="0" cy="1480" rx="125.44" ry="1272.8" fill="url(#projects-board-mobile-purple)" opacity=".65"/><ellipse cx="282.24" cy="0" rx="117.6" ry="1184" fill="url(#projects-board-mobile-purple)" opacity=".32"/><path d="M24 2H368" stroke="#f0efff" stroke-opacity=".44"/><path d="M8 24Q8 8 24 8H176.4" fill="none" stroke="#c4d8ff" stroke-opacity=".18" stroke-width="3" stroke-linecap="round" filter="url(#projects-board-mobile-glow)"/></g>
<g transform="translate(16 656)"><defs>
  <linearGradient id="project-performance-mobile-bg" x1="0" y1="0" x2="1" y2="1"><stop stop-color="#18283e"/><stop offset=".45" stop-color="#091723"/><stop offset="1" stop-color="#162347"/></linearGradient>
  <linearGradient id="project-performance-mobile-edge" x1="0" y1="0" x2="1" y2="1"><stop stop-color="#cabfff"/><stop offset=".35" stop-color="#5387bd"/><stop offset=".75" stop-color="#809fef"/><stop offset="1" stop-color="#d3ceff"/></linearGradient>
  <linearGradient id="project-performance-mobile-glass" x1="0" y1="0" x2="1" y2="1"><stop stop-color="#d7e4ff" stop-opacity=".42"/><stop offset=".3" stop-color="#839bfc" stop-opacity=".13"/><stop offset=".7" stop-color="#608bd0" stop-opacity=".06"/><stop offset="1" stop-color="#9797ff" stop-opacity=".30"/></linearGradient>
  <linearGradient id="project-performance-mobile-blue" x1="0" y1="0" x2="1" y2="1"><stop stop-color="#a4eeff"/><stop offset=".5" stop-color="#54abff"/><stop offset="1" stop-color="#8079ff"/></linearGradient>
  <linearGradient id="project-performance-mobile-violet" x1="0" y1="0" x2="1" y2="1"><stop stop-color="#8facff"/><stop offset=".55" stop-color="#7962d9"/><stop offset="1" stop-color="#342955"/></linearGradient>
  <radialGradient id="project-performance-mobile-halo"><stop stop-color="#54baff" stop-opacity=".9"/><stop offset=".38" stop-color="#4785f2" stop-opacity=".48"/><stop offset="1" stop-color="#527aff" stop-opacity="0"/></radialGradient>
  <radialGradient id="project-performance-mobile-purple"><stop stop-color="#ac86ff" stop-opacity=".7"/><stop offset=".45" stop-color="#7958d9" stop-opacity=".32"/><stop offset="1" stop-color="#634ec3" stop-opacity="0"/></radialGradient>
  <linearGradient id="project-performance-mobile-wave" x1="0" y1="0" x2="0" y2="1"><stop stop-color="#b7a5ff" stop-opacity=".9"/><stop offset=".35" stop-color="#8461f0" stop-opacity=".55"/><stop offset="1" stop-color="#5758cb" stop-opacity=".02"/></linearGradient>
  <filter id="project-performance-mobile-glow" x="-60%" y="-60%" width="220%" height="220%"><feGaussianBlur stdDeviation="4"/></filter>
  <clipPath id="project-performance-mobile-clip"><rect x="1" y="1" width="358" height="396" rx="22"/></clipPath>
  <clipPath id="project-performance-mobile-art-clip"><rect width="226" height="266" rx="17"/></clipPath>
</defs>
<rect x="1" y="1" width="358" height="396" rx="22" fill="url(#project-performance-mobile-bg)" stroke="url(#project-performance-mobile-edge)"/>
<g aria-hidden="true" clip-path="url(#project-performance-mobile-clip)"><ellipse cx="360" cy="302.48" rx="151.2" ry="338.3" fill="url(#project-performance-mobile-halo)" opacity=".65"/><ellipse cx="0" cy="398" rx="115.2" ry="342.28" fill="url(#project-performance-mobile-purple)" opacity=".65"/><ellipse cx="259.2" cy="0" rx="108" ry="318.4" fill="url(#project-performance-mobile-purple)" opacity=".32"/><path d="M24 2H336" stroke="#f0efff" stroke-opacity=".44"/><path d="M8 24Q8 8 24 8H162" fill="none" stroke="#c4d8ff" stroke-opacity=".18" stroke-width="3" stroke-linecap="round" filter="url(#project-performance-mobile-glow)"/></g>
<g aria-hidden="true" transform="translate(20 24) scale(0.725)"><rect x="1" y="1" width="78" height="78" rx="18" fill="url(#project-performance-mobile-glass)" stroke="#8298d6"/><ellipse cx="40" cy="44" rx="32" ry="30" fill="url(#project-performance-mobile-halo)"/><path d="M17 60A29 29 0 1 1 63 60" fill="none" stroke="url(#project-performance-mobile-blue)" stroke-width="4"/>
<path d="M20 48 25 46M23 29 28 32M40 20V26M57 29 52 32M60 48 55 46" stroke="#a3c7ff" stroke-width="3" stroke-linecap="round"/>
<path d="M40 47 54 31" stroke="#7eaaff" stroke-width="4" stroke-linecap="round"/><circle cx="40" cy="47" r="5" fill="#9ac9ff"/></g><text x="91" y="45" font-family="Segoe UI,Arial,sans-serif" font-size="20" font-weight="650" fill="#f3f6ff">performance-tests</text><text x="91" y="68" font-family="Segoe UI,Arial,sans-serif" font-size="13" font-weight="400" fill="#9ccaff">Performance &amp; Load Testing</text><text x="20" y="105" font-family="Segoe UI,Arial,sans-serif" font-size="17" font-weight="400" fill="#e0e8f6">Locust-based load testing with</text><text x="20" y="128" font-family="Segoe UI,Arial,sans-serif" font-size="17" font-weight="400" fill="#e0e8f6">reusable HTTP/gRPC clients,</text><text x="20" y="151" font-family="Segoe UI,Arial,sans-serif" font-size="17" font-weight="400" fill="#e0e8f6">automated data seeding,</text><text x="20" y="174" font-family="Segoe UI,Arial,sans-serif" font-size="17" font-weight="400" fill="#e0e8f6">Prometheus/Grafana monitoring, and</text><text x="20" y="197" font-family="Segoe UI,Arial,sans-serif" font-size="17" font-weight="400" fill="#e0e8f6">CI-generated reports.</text><g aria-label="Technology stack"><g transform="translate(20 228)"><rect width="74" height="28" rx="14" fill="#1a3c70" fill-opacity=".65" stroke="#4388e3"/><rect width="74" height="28" rx="14" fill="url(#project-performance-mobile-glass)"/><path d="M13 2H61" stroke="#ffffff" stroke-opacity=".15"/><text x="12" y="19" font-family="Segoe UI,Arial,sans-serif" font-size="15" font-weight="400" fill="#baddff">Python</text></g><g transform="translate(102 228)"><rect width="74" height="28" rx="14" fill="#16422c" fill-opacity=".65" stroke="#329967"/><rect width="74" height="28" rx="14" fill="url(#project-performance-mobile-glass)"/><path d="M13 2H61" stroke="#ffffff" stroke-opacity=".15"/><text x="12" y="19" font-family="Segoe UI,Arial,sans-serif" font-size="15" font-weight="400" fill="#adf7c7">Locust</text></g><g transform="translate(184 228)"><rect width="60" height="28" rx="14" fill="#12434b" fill-opacity=".65" stroke="#24a7b1"/><rect width="60" height="28" rx="14" fill="url(#project-performance-mobile-glass)"/><path d="M13 2H47" stroke="#ffffff" stroke-opacity=".15"/><text x="12" y="19" font-family="Segoe UI,Arial,sans-serif" font-size="15" font-weight="400" fill="#93f2f1">gRPC</text></g><g transform="translate(252 228)"><rect width="69" height="28" rx="14" fill="#12434b" fill-opacity=".65" stroke="#24a7b1"/><rect width="69" height="28" rx="14" fill="url(#project-performance-mobile-glass)"/><path d="M13 2H56" stroke="#ffffff" stroke-opacity=".15"/><text x="12" y="19" font-family="Segoe UI,Arial,sans-serif" font-size="15" font-weight="400" fill="#93f2f1">HTTPX</text></g><g transform="translate(20 262)"><rect width="74" height="28" rx="14" fill="#262b62" fill-opacity=".65" stroke="#6376d8"/><rect width="74" height="28" rx="14" fill="url(#project-performance-mobile-glass)"/><path d="M13 2H61" stroke="#ffffff" stroke-opacity=".15"/><text x="12" y="19" font-family="Segoe UI,Arial,sans-serif" font-size="15" font-weight="400" fill="#d4d9ff">Docker</text></g><g transform="translate(102 262)"><rect width="109" height="28" rx="14" fill="#4b2c22" fill-opacity=".65" stroke="#bd7245"/><rect width="109" height="28" rx="14" fill="url(#project-performance-mobile-glass)"/><path d="M13 2H96" stroke="#ffffff" stroke-opacity=".15"/><text x="12" y="19" font-family="Segoe UI,Arial,sans-serif" font-size="15" font-weight="400" fill="#ffd4b7">Prometheus</text></g><g transform="translate(219 262)"><rect width="78" height="28" rx="14" fill="#4b2c22" fill-opacity=".65" stroke="#bd7245"/><rect width="78" height="28" rx="14" fill="url(#project-performance-mobile-glass)"/><path d="M13 2H65" stroke="#ffffff" stroke-opacity=".15"/><text x="12" y="19" font-family="Segoe UI,Arial,sans-serif" font-size="15" font-weight="400" fill="#ffd4b7">Grafana</text></g></g>
</g>
</svg>
